# xmcd
#
# Track frame offsets:
#	150
#	14876
#	29804
#	37742
#	46954
#	58483
#	74310
#	103143
#	111891
#	124420
#	136952
#	151728
#	164949
#	223646
#	231121
#	250031
#	265881
#	281724
#	291802
#	321075
#
# Disc length: 4342 seconds
#
# Revision: 2
# Processed by: cddbd v1.5.1PL0 Copyright (c) Steve Scherf et al.
# Submitted via: audiograbber 1.83.01
#
DISCID=3c10f414
DTITLE=Various Artist - Christmas Country: Carols by Country Legends
DYEAR=1900
DGENRE=Country
TTITLE0=Ray Drusky - White Christmas
TTITLE1=Billie Jo Spears - Silent Night
TTITLE2=Bobby Helms - Jingle Bell Rock
TTITLE3=The Moody Brothers - Winter Wonderland
TTITLE4=Jean Shepard - O Come All Ye Faithful
TTITLE5=The Moody Brothers - Tennessee Christmas
TTITLE6=Fireside Orchestra - Sleigh Ride, Jingle Bells, etc.
TTITLE7=Leroy VanDyke - Rudolph, the Red-Nosed Reindeer
TTITLE8=Porter Wagoner - Johnny's Christmas Tree
TTITLE9=The Moody Brothers - Run, Run, Rudolph
TTITLE10=The Moody Brothers - Christmas, Last Christmas Eve
TTITLE11=The Moody Brothers - New Star Shining
TTITLE12=Fireside Orchestra - God Rest Ye Merry, O Holy Night, etc.
TTITLE13=The Moody Brothers - Christmastime's Coming
TTITLE14=Patti Page - Holidays
TTITLE15=Fireside Orchestra - Home for the Holidays
TTITLE16=David Frizzell - Blue Christmas
TTITLE17=The Moody Brothers - Little Toy Trains
TTITLE18=Fireside Orchestra - Ding, Dong, Merrily on High etc.
TTITLE19=The Moody Brothers - Silent Night (Reprise)
EXTD=
EXTT0=
EXTT1=
EXTT2=
EXTT3=
EXTT4=
EXTT5=
EXTT6=
EXTT7=
EXTT8=
EXTT9=
EXTT10=
EXTT11=
EXTT12=
EXTT13=
EXTT14=
EXTT15=
EXTT16=
EXTT17=
EXTT18=
EXTT19=
PLAYORDER=
